<mxfile host="app.diagrams.net" modified="2024-06-30T10:13:12.299Z" agent="Mozilla/5.0 (Windows NT 10.0; Win64; x64; rv:127.0) Gecko/20100101 Firefox/127.0" etag="Riqyb0shp44TxzxPkFsz" version="24.6.4" type="github">
  <diagram name="Page-1" id="5f0bae14-7c28-e335-631c-24af17079c00">
    <mxGraphModel dx="1615" dy="871" grid="1" gridSize="10" guides="1" tooltips="1" connect="1" arrows="1" fold="1" page="1" pageScale="1" pageWidth="1100" pageHeight="850" background="none" math="0" shadow="0">
      <root>
        <mxCell id="0" />
        <mxCell id="1" parent="0" />
        <mxCell id="39150e848f15840c-1" value="Gitlab" style="verticalAlign=top;align=center;spacingTop=8;spacingLeft=2;spacingRight=12;shape=cube;size=10;direction=south;fontStyle=4;html=1;rounded=0;shadow=0;comic=0;labelBackgroundColor=none;strokeWidth=1;fontFamily=Verdana;fontSize=12" parent="1" vertex="1">
          <mxGeometry x="640" y="50" width="320" height="490" as="geometry" />
        </mxCell>
        <mxCell id="39150e848f15840c-2" value="&lt;div align=&quot;center&quot;&gt;Nexus&lt;/div&gt;" style="verticalAlign=top;align=center;spacingTop=8;spacingLeft=2;spacingRight=12;shape=cube;size=10;direction=south;fontStyle=4;html=1;rounded=0;shadow=0;comic=0;labelBackgroundColor=none;strokeWidth=1;fontFamily=Verdana;fontSize=12" parent="1" vertex="1">
          <mxGeometry x="1270" y="300" width="330" height="220" as="geometry" />
        </mxCell>
        <mxCell id="39150e848f15840c-3" value="&lt;div align=&quot;center&quot;&gt;Swarm Cluster &lt;/div&gt;" style="verticalAlign=top;align=center;spacingTop=8;spacingLeft=2;spacingRight=12;shape=cube;size=10;direction=south;fontStyle=4;html=1;rounded=0;shadow=0;comic=0;labelBackgroundColor=none;strokeWidth=1;fontFamily=Verdana;fontSize=12" parent="1" vertex="1">
          <mxGeometry x="130" y="440" width="380" height="370" as="geometry" />
        </mxCell>
        <mxCell id="39150e848f15840c-5" value="" style="shape=component;align=left;spacingLeft=36;rounded=0;shadow=0;comic=0;labelBackgroundColor=none;strokeWidth=1;fontFamily=Verdana;fontSize=12;html=1;" parent="1" vertex="1">
          <mxGeometry x="680" y="137.27" width="210" height="180" as="geometry" />
        </mxCell>
        <mxCell id="39150e848f15840c-7" value="Module" style="shape=component;align=left;spacingLeft=36;rounded=0;shadow=0;comic=0;labelBackgroundColor=none;strokeWidth=1;fontFamily=Verdana;fontSize=12;html=1;" parent="1" vertex="1">
          <mxGeometry x="1290" y="375" width="120" height="60" as="geometry" />
        </mxCell>
        <mxCell id="39150e848f15840c-8" value="&amp;laquo;interface&amp;raquo;&lt;br&gt;&lt;b&gt;Name&lt;/b&gt;" style="html=1;rounded=0;shadow=0;comic=0;labelBackgroundColor=none;strokeWidth=1;fontFamily=Verdana;fontSize=12;align=center;" parent="1" vertex="1">
          <mxGeometry x="1450" y="380" width="110" height="50" as="geometry" />
        </mxCell>
        <mxCell id="39150e848f15840c-11" style="edgeStyle=none;rounded=0;html=1;dashed=1;labelBackgroundColor=none;startArrow=none;startFill=0;startSize=8;endArrow=open;endFill=0;endSize=16;fontFamily=Verdana;fontSize=12;" parent="1" edge="1">
          <mxGeometry relative="1" as="geometry">
            <mxPoint x="1349.7889884616166" y="771.12" as="sourcePoint" />
            <mxPoint x="1239.99712643138" y="559.9954935663344" as="targetPoint" />
          </mxGeometry>
        </mxCell>
        <mxCell id="W_dTFAJQIupuh_B9VOwT-17" value="Text" style="edgeLabel;html=1;align=center;verticalAlign=middle;resizable=0;points=[];" vertex="1" connectable="0" parent="39150e848f15840c-11">
          <mxGeometry x="0.4629" y="3" relative="1" as="geometry">
            <mxPoint x="373" y="-108" as="offset" />
          </mxGeometry>
        </mxCell>
        <mxCell id="39150e848f15840c-16" style="edgeStyle=orthogonalEdgeStyle;rounded=0;html=1;dashed=1;labelBackgroundColor=none;startArrow=none;startFill=0;startSize=8;endArrow=open;endFill=0;endSize=16;fontFamily=Verdana;fontSize=12;" parent="1" source="39150e848f15840c-7" target="39150e848f15840c-8" edge="1">
          <mxGeometry relative="1" as="geometry" />
        </mxCell>
        <mxCell id="W_dTFAJQIupuh_B9VOwT-8" value="&lt;div align=&quot;center&quot;&gt;Manger node &lt;/div&gt;" style="verticalAlign=top;align=center;spacingTop=8;spacingLeft=2;spacingRight=12;shape=cube;size=10;direction=south;fontStyle=4;html=1;whiteSpace=wrap;" vertex="1" parent="1">
          <mxGeometry x="160" y="550" width="135" height="160" as="geometry" />
        </mxCell>
        <mxCell id="W_dTFAJQIupuh_B9VOwT-9" value="&lt;div align=&quot;center&quot;&gt;Worker node &lt;/div&gt;" style="verticalAlign=top;align=center;spacingTop=8;spacingLeft=2;spacingRight=12;shape=cube;size=10;direction=south;fontStyle=4;html=1;whiteSpace=wrap;" vertex="1" parent="1">
          <mxGeometry x="340" y="550" width="130" height="160" as="geometry" />
        </mxCell>
        <mxCell id="W_dTFAJQIupuh_B9VOwT-10" value="Jenkins Server" style="verticalAlign=top;align=center;spacingTop=8;spacingLeft=2;spacingRight=12;shape=cube;size=10;direction=south;fontStyle=4;html=1;rounded=0;shadow=0;comic=0;labelBackgroundColor=none;strokeWidth=1;fontFamily=Verdana;fontSize=12" vertex="1" parent="1">
          <mxGeometry x="645" y="710" width="330" height="220" as="geometry" />
        </mxCell>
        <mxCell id="W_dTFAJQIupuh_B9VOwT-15" value="" style="swimlane;startSize=0;" vertex="1" parent="1">
          <mxGeometry x="90" y="390" width="450" height="460" as="geometry" />
        </mxCell>
        <mxCell id="W_dTFAJQIupuh_B9VOwT-11" value="PrÃ©-prod" style="text;align=center;fontStyle=1;verticalAlign=middle;spacingLeft=3;spacingRight=3;strokeColor=none;rotatable=0;points=[[0,0.5],[1,0.5]];portConstraint=eastwest;html=1;" vertex="1" parent="W_dTFAJQIupuh_B9VOwT-15">
          <mxGeometry x="190" y="9" width="80" height="26" as="geometry" />
        </mxCell>
        <mxCell id="W_dTFAJQIupuh_B9VOwT-18" value="Virtual Machine" style="verticalAlign=top;align=center;spacingTop=8;spacingLeft=2;spacingRight=12;shape=cube;size=10;direction=south;fontStyle=4;html=1;rounded=0;shadow=0;comic=0;labelBackgroundColor=none;strokeWidth=1;fontFamily=Verdana;fontSize=12" vertex="1" parent="1">
          <mxGeometry x="1070" y="80" width="170" height="150" as="geometry" />
        </mxCell>
        <mxCell id="W_dTFAJQIupuh_B9VOwT-19" value="" style="sketch=0;outlineConnect=0;fontColor=#232F3E;gradientColor=none;fillColor=#232F3D;strokeColor=none;dashed=0;verticalLabelPosition=bottom;verticalAlign=top;align=center;html=1;fontSize=12;fontStyle=0;aspect=fixed;pointerEvents=1;shape=mxgraph.aws4.json_script;" vertex="1" parent="1">
          <mxGeometry x="1135.08" y="122.72999999999999" width="39.85" height="54.53" as="geometry" />
        </mxCell>
        <mxCell id="W_dTFAJQIupuh_B9VOwT-20" value="Scripts " style="text;html=1;align=center;verticalAlign=middle;whiteSpace=wrap;rounded=0;" vertex="1" parent="1">
          <mxGeometry x="1125" y="177.26" width="60" height="30" as="geometry" />
        </mxCell>
        <mxCell id="W_dTFAJQIupuh_B9VOwT-27" value="" style="shape=component;align=left;spacingLeft=36;rounded=0;shadow=0;comic=0;labelBackgroundColor=none;strokeWidth=1;fontFamily=Verdana;fontSize=12;html=1;" vertex="1" parent="1">
          <mxGeometry x="690" y="380" width="210" height="110" as="geometry" />
        </mxCell>
        <mxCell id="W_dTFAJQIupuh_B9VOwT-28" value="Backend docker images" style="rounded=0;whiteSpace=wrap;html=1;" vertex="1" parent="1">
          <mxGeometry x="745" y="390" width="100" height="40" as="geometry" />
        </mxCell>
        <mxCell id="W_dTFAJQIupuh_B9VOwT-29" value="Frontend docker images" style="rounded=0;whiteSpace=wrap;html=1;" vertex="1" parent="1">
          <mxGeometry x="745" y="440" width="100" height="40" as="geometry" />
        </mxCell>
        <mxCell id="W_dTFAJQIupuh_B9VOwT-30" value="Container Registry" style="text;html=1;align=center;verticalAlign=middle;whiteSpace=wrap;rounded=0;" vertex="1" parent="1">
          <mxGeometry x="737.5" y="350" width="115" height="30" as="geometry" />
        </mxCell>
        <mxCell id="W_dTFAJQIupuh_B9VOwT-31" value="Repostiory" style="text;html=1;align=center;verticalAlign=middle;whiteSpace=wrap;rounded=0;" vertex="1" parent="1">
          <mxGeometry x="765" y="99.99999999999999" width="60" height="30" as="geometry" />
        </mxCell>
        <mxCell id="W_dTFAJQIupuh_B9VOwT-32" value="code source back-end" style="rounded=0;whiteSpace=wrap;html=1;" vertex="1" parent="1">
          <mxGeometry x="728.75" y="154.53" width="132.5" height="40" as="geometry" />
        </mxCell>
        <mxCell id="W_dTFAJQIupuh_B9VOwT-33" value="code source front-end" style="rounded=0;whiteSpace=wrap;html=1;" vertex="1" parent="1">
          <mxGeometry x="728.75" y="207.27" width="132.5" height="40" as="geometry" />
        </mxCell>
        <mxCell id="W_dTFAJQIupuh_B9VOwT-34" value="code source scipts" style="rounded=0;whiteSpace=wrap;html=1;" vertex="1" parent="1">
          <mxGeometry x="728.75" y="260" width="132.5" height="40" as="geometry" />
        </mxCell>
      </root>
    </mxGraphModel>
  </diagram>
</mxfile>
